<svg width="58" height="64" viewBox="0 0 58 64" fill="none" xmlns="http://www.w3.org/2000/svg">
<path d="M45.2461 22.4297L43.1719 23.8008C41.9062 21.9258 40.2539 20.4492 38.2148 19.3711C36.1992 18.2695 34.0078 17.7188 31.6406 17.7188C27.7969 17.7188 24.5156 19.0781 21.7969 21.7969C19.0781 24.5156 17.7188 27.7969 17.7188 31.6406C17.7188 35.4844 19.0781 38.7656 21.7969 41.4844C24.5156 44.2031 27.7969 45.5625 31.6406 45.5625C34.0078 45.5625 36.1992 45.0117 38.2148 43.9102C40.2539 42.8086 41.9062 41.3203 43.1719 39.4453L45.2109 40.9219C43.7109 43.125 41.7656 44.8711 39.375 46.1602C36.9844 47.4492 34.4062 48.0938 31.6406 48.0938C29.4141 48.0938 27.2812 47.6602 25.2422 46.793C23.2266 45.9258 21.4805 44.7539 20.0039 43.2773C18.5273 41.8008 17.3555 40.0547 16.4883 38.0391C15.6211 36 15.1875 33.8672 15.1875 31.6406C15.1875 29.4141 15.6211 27.293 16.4883 25.2773C17.3555 23.2383 18.5273 21.4805 20.0039 20.0039C21.4805 18.5273 23.2266 17.3555 25.2422 16.4883C27.2812 15.6211 29.4141 15.1875 31.6406 15.1875C34.4297 15.1875 37.0195 15.8438 39.4102 17.1562C41.8008 18.4453 43.7461 20.2031 45.2461 22.4297ZM49.4297 19.5469L47.3203 20.918C45.5859 18.3867 43.3359 16.3828 40.5703 14.9062C37.8281 13.4062 34.8516 12.6562 31.6406 12.6562C28.1953 12.6562 25.0195 13.5117 22.1133 15.2227C19.207 16.9102 16.8984 19.207 15.1875 22.1133C13.5 25.0195 12.6562 28.1953 12.6562 31.6406C12.6562 35.0859 13.5 38.2617 15.1875 41.168C16.8984 44.0742 19.207 46.3828 22.1133 48.0938C25.0195 49.7812 28.1953 50.625 31.6406 50.625C34.8516 50.625 37.8398 49.875 40.6055 48.375C43.3711 46.875 45.6211 44.8477 47.3555 42.293L49.4297 43.7344C47.4609 46.6406 44.9062 48.9375 41.7656 50.625C38.6484 52.3125 35.2734 53.1562 31.6406 53.1562C27.75 53.1562 24.1523 52.1953 20.8477 50.2734C17.543 48.3516 14.9297 45.7383 13.0078 42.4336C11.0859 39.1289 10.125 35.5312 10.125 31.6406C10.125 27.75 11.0859 24.1523 13.0078 20.8477C14.9297 17.543 17.543 14.9297 20.8477 13.0078C24.1523 11.0859 27.75 10.125 31.6406 10.125C35.2734 10.125 38.6484 10.9688 41.7656 12.6562C44.9062 14.3438 47.4609 16.6406 49.4297 19.5469ZM53.6484 16.7344L51.5391 18.1055C49.3359 14.8711 46.4766 12.3164 42.9609 10.4414C39.4688 8.54297 35.6953 7.59375 31.6406 7.59375C28.3828 7.59375 25.2656 8.22656 22.2891 9.49219C19.3125 10.7578 16.7461 12.4688 14.5898 14.625C12.457 16.7578 10.7578 19.3125 9.49219 22.2891C8.22656 25.2656 7.59375 28.3828 7.59375 31.6406C7.59375 34.8984 8.22656 38.0156 9.49219 40.9922C10.7578 43.9688 12.457 46.5352 14.5898 48.6914C16.7461 50.8242 19.3125 52.5234 22.2891 53.7891C25.2656 55.0547 28.3828 55.6875 31.6406 55.6875C35.7188 55.6875 39.5039 54.7383 42.9961 52.8398C46.4883 50.9414 49.3359 48.375 51.5391 45.1406L53.5781 46.6523C51.1406 50.2148 47.9883 53.0391 44.1211 55.125C40.2773 57.1875 36.1172 58.2188 31.6406 58.2188C26.8359 58.2188 22.3945 57.0352 18.3164 54.668C14.2383 52.2773 11.0039 49.043 8.61328 44.9648C6.24609 40.8867 5.0625 36.4453 5.0625 31.6406C5.0625 26.8359 6.24609 22.3945 8.61328 18.3164C11.0039 14.2383 14.2383 11.0156 18.3164 8.64844C22.3945 6.25781 26.8359 5.0625 31.6406 5.0625C36.1406 5.0625 40.3242 6.11719 44.1914 8.22656C48.0586 10.3125 51.2109 13.1484 53.6484 16.7344ZM57.7969 13.8516L55.6875 15.2227C53.0156 11.3086 49.5586 8.21484 45.3164 5.94141C41.0977 3.66797 36.5391 2.53125 31.6406 2.53125C27.7031 2.53125 23.9297 3.30469 20.3203 4.85156C16.7344 6.375 13.6406 8.4375 11.0391 11.0391C8.4375 13.6406 6.36328 16.7461 4.81641 20.3555C3.29297 23.9414 2.53125 27.7031 2.53125 31.6406C2.53125 35.5781 3.29297 39.3516 4.81641 42.9609C6.36328 46.5469 8.4375 49.6406 11.0391 52.2422C13.6406 54.8438 16.7344 56.918 20.3203 58.4648C23.9297 59.9883 27.7031 60.75 31.6406 60.75C36.5391 60.75 41.1094 59.6016 45.3516 57.3047C49.5938 55.0078 53.0508 51.9023 55.7227 47.9883L57.7617 49.5352C54.8555 53.7539 51.1055 57.1055 46.5117 59.5898C41.918 62.0508 36.9609 63.2812 31.6406 63.2812C27.3516 63.2812 23.25 62.4375 19.3359 60.75C15.4453 59.0859 12.082 56.8477 9.24609 54.0352C6.43359 51.1992 4.18359 47.8359 2.49609 43.9453C0.832031 40.0312 0 35.9297 0 31.6406C0 27.3516 0.832031 23.2617 2.49609 19.3711C4.18359 15.457 6.43359 12.0938 9.24609 9.28125C12.082 6.44531 15.4453 4.19531 19.3359 2.53125C23.25 0.84375 27.3516 0 31.6406 0C36.9844 0 41.9531 1.24219 46.5469 3.72656C51.1406 6.21094 54.8906 9.58594 57.7969 13.8516Z" fill="url(#paint0_linear)"/>
<defs>
<linearGradient id="paint0_linear" x1="0" y1="0" x2="58" y2="63" gradientUnits="userSpaceOnUse">
<stop stop-color="#7F63EE"/>
<stop offset="0.515625" stop-color="#68C6E3"/>
<stop offset="1" stop-color="#42FDF2"/>
</linearGradient>
</defs>
</svg>
