<svg width="209" height="132" viewBox="0 0 209 132" fill="none" xmlns="http://www.w3.org/2000/svg">
<path d="M46.2148 22.6797L44.1406 24.0508C42.875 22.1758 41.2227 20.6992 39.1836 19.6211C37.168 18.5195 34.9766 17.9688 32.6094 17.9688C28.7656 17.9688 25.4844 19.3281 22.7656 22.0469C20.0469 24.7656 18.6875 28.0469 18.6875 31.8906C18.6875 35.7344 20.0469 39.0156 22.7656 41.7344C25.4844 44.4531 28.7656 45.8125 32.6094 45.8125C34.9766 45.8125 37.168 45.2617 39.1836 44.1602C41.2227 43.0586 42.875 41.5703 44.1406 39.6953L46.1797 41.1719C44.6797 43.375 42.7344 45.1211 40.3438 46.4102C37.9531 47.6992 35.375 48.3438 32.6094 48.3438C30.3828 48.3438 28.25 47.9102 26.2109 47.043C24.1953 46.1758 22.4492 45.0039 20.9727 43.5273C19.4961 42.0508 18.3242 40.3047 17.457 38.2891C16.5898 36.25 16.1562 34.1172 16.1562 31.8906C16.1562 29.6641 16.5898 27.543 17.457 25.5273C18.3242 23.4883 19.4961 21.7305 20.9727 20.2539C22.4492 18.7773 24.1953 17.6055 26.2109 16.7383C28.25 15.8711 30.3828 15.4375 32.6094 15.4375C35.3984 15.4375 37.9883 16.0938 40.3789 17.4062C42.7695 18.6953 44.7148 20.4531 46.2148 22.6797ZM50.3984 19.7969L48.2891 21.168C46.5547 18.6367 44.3047 16.6328 41.5391 15.1562C38.7969 13.6562 35.8203 12.9062 32.6094 12.9062C29.1641 12.9062 25.9883 13.7617 23.082 15.4727C20.1758 17.1602 17.8672 19.457 16.1562 22.3633C14.4688 25.2695 13.625 28.4453 13.625 31.8906C13.625 35.3359 14.4688 38.5117 16.1562 41.418C17.8672 44.3242 20.1758 46.6328 23.082 48.3438C25.9883 50.0312 29.1641 50.875 32.6094 50.875C35.8203 50.875 38.8086 50.125 41.5742 48.625C44.3398 47.125 46.5898 45.0977 48.3242 42.543L50.3984 43.9844C48.4297 46.8906 45.875 49.1875 42.7344 50.875C39.6172 52.5625 36.2422 53.4062 32.6094 53.4062C28.7188 53.4062 25.1211 52.4453 21.8164 50.5234C18.5117 48.6016 15.8984 45.9883 13.9766 42.6836C12.0547 39.3789 11.0938 35.7812 11.0938 31.8906C11.0938 28 12.0547 24.4023 13.9766 21.0977C15.8984 17.793 18.5117 15.1797 21.8164 13.2578C25.1211 11.3359 28.7188 10.375 32.6094 10.375C36.2422 10.375 39.6172 11.2188 42.7344 12.9062C45.875 14.5938 48.4297 16.8906 50.3984 19.7969ZM54.6172 16.9844L52.5078 18.3555C50.3047 15.1211 47.4453 12.5664 43.9297 10.6914C40.4375 8.79297 36.6641 7.84375 32.6094 7.84375C29.3516 7.84375 26.2344 8.47656 23.2578 9.74219C20.2812 11.0078 17.7148 12.7188 15.5586 14.875C13.4258 17.0078 11.7266 19.5625 10.4609 22.5391C9.19531 25.5156 8.5625 28.6328 8.5625 31.8906C8.5625 35.1484 9.19531 38.2656 10.4609 41.2422C11.7266 44.2188 13.4258 46.7852 15.5586 48.9414C17.7148 51.0742 20.2812 52.7734 23.2578 54.0391C26.2344 55.3047 29.3516 55.9375 32.6094 55.9375C36.6875 55.9375 40.4727 54.9883 43.9648 53.0898C47.457 51.1914 50.3047 48.625 52.5078 45.3906L54.5469 46.9023C52.1094 50.4648 48.957 53.2891 45.0898 55.375C41.2461 57.4375 37.0859 58.4688 32.6094 58.4688C27.8047 58.4688 23.3633 57.2852 19.2852 54.918C15.207 52.5273 11.9727 49.293 9.58203 45.2148C7.21484 41.1367 6.03125 36.6953 6.03125 31.8906C6.03125 27.0859 7.21484 22.6445 9.58203 18.5664C11.9727 14.4883 15.207 11.2656 19.2852 8.89844C23.3633 6.50781 27.8047 5.3125 32.6094 5.3125C37.1094 5.3125 41.293 6.36719 45.1602 8.47656C49.0273 10.5625 52.1797 13.3984 54.6172 16.9844ZM58.7656 14.1016L56.6562 15.4727C53.9844 11.5586 50.5273 8.46484 46.2852 6.19141C42.0664 3.91797 37.5078 2.78125 32.6094 2.78125C28.6719 2.78125 24.8984 3.55469 21.2891 5.10156C17.7031 6.625 14.6094 8.6875 12.0078 11.2891C9.40625 13.8906 7.33203 16.9961 5.78516 20.6055C4.26172 24.1914 3.5 27.9531 3.5 31.8906C3.5 35.8281 4.26172 39.6016 5.78516 43.2109C7.33203 46.7969 9.40625 49.8906 12.0078 52.4922C14.6094 55.0938 17.7031 57.168 21.2891 58.7148C24.8984 60.2383 28.6719 61 32.6094 61C37.5078 61 42.0781 59.8516 46.3203 57.5547C50.5625 55.2578 54.0195 52.1523 56.6914 48.2383L58.7305 49.7852C55.8242 54.0039 52.0742 57.3555 47.4805 59.8398C42.8867 62.3008 37.9297 63.5312 32.6094 63.5312C28.3203 63.5312 24.2188 62.6875 20.3047 61C16.4141 59.3359 13.0508 57.0977 10.2148 54.2852C7.40234 51.4492 5.15234 48.0859 3.46484 44.1953C1.80078 40.2812 0.96875 36.1797 0.96875 31.8906C0.96875 27.6016 1.80078 23.5117 3.46484 19.6211C5.15234 15.707 7.40234 12.3438 10.2148 9.53125C13.0508 6.69531 16.4141 4.44531 20.3047 2.78125C24.2188 1.09375 28.3203 0.25 32.6094 0.25C37.9531 0.25 42.9219 1.49219 47.5156 3.97656C52.1094 6.46094 55.8594 9.83594 58.7656 14.1016Z" fill="white"/>
<path d="M84.1484 22.0469C81.4297 24.7656 80.0703 28.0469 80.0703 31.8906C80.0703 35.7344 81.4297 39.0156 84.1484 41.7344C86.8672 44.4531 90.1484 45.8125 93.9922 45.8125C97.8359 45.8125 101.117 44.4531 103.836 41.7344C106.555 39.0156 107.914 35.7344 107.914 31.8906C107.914 28.0469 106.555 24.7656 103.836 22.0469C101.117 19.3281 97.8359 17.9688 93.9922 17.9688C90.1484 17.9688 86.8672 19.3281 84.1484 22.0469ZM78.8398 38.2891C77.9727 36.25 77.5391 34.1172 77.5391 31.8906C77.5391 29.6641 77.9727 27.543 78.8398 25.5273C79.707 23.4883 80.8789 21.7305 82.3555 20.2539C83.832 18.7773 85.5781 17.6055 87.5938 16.7383C89.6328 15.8711 91.7656 15.4375 93.9922 15.4375C96.2188 15.4375 98.3398 15.8711 100.355 16.7383C102.395 17.6055 104.152 18.7773 105.629 20.2539C107.105 21.7305 108.277 23.4883 109.145 25.5273C110.012 27.543 110.445 29.6641 110.445 31.8906C110.445 34.1172 110.012 36.25 109.145 38.2891C108.277 40.3047 107.105 42.0508 105.629 43.5273C104.152 45.0039 102.395 46.1758 100.355 47.043C98.3398 47.9102 96.2188 48.3438 93.9922 48.3438C91.7656 48.3438 89.6328 47.9102 87.5938 47.043C85.5781 46.1758 83.832 45.0039 82.3555 43.5273C80.8789 42.0508 79.707 40.3047 78.8398 38.2891ZM77.5391 22.3633C75.8516 25.2695 75.0078 28.4453 75.0078 31.8906C75.0078 35.3359 75.8516 38.5117 77.5391 41.418C79.25 44.3242 81.5586 46.6328 84.4648 48.3438C87.3711 50.0312 90.5469 50.875 93.9922 50.875C97.4375 50.875 100.613 50.0312 103.52 48.3438C106.426 46.6328 108.723 44.3242 110.41 41.418C112.121 38.5117 112.977 35.3359 112.977 31.8906C112.977 28.4453 112.121 25.2695 110.41 22.3633C108.723 19.457 106.426 17.1602 103.52 15.4727C100.613 13.7617 97.4375 12.9062 93.9922 12.9062C90.5469 12.9062 87.3711 13.7617 84.4648 15.4727C81.5586 17.1602 79.25 19.457 77.5391 22.3633ZM75.3594 42.6836C73.4375 39.3789 72.4766 35.7812 72.4766 31.8906C72.4766 28 73.4375 24.4023 75.3594 21.0977C77.2812 17.793 79.8945 15.1797 83.1992 13.2578C86.5039 11.3359 90.1016 10.375 93.9922 10.375C97.8828 10.375 101.48 11.3359 104.785 13.2578C108.09 15.1797 110.703 17.793 112.625 21.0977C114.547 24.4023 115.508 28 115.508 31.8906C115.508 35.7812 114.547 39.3789 112.625 42.6836C110.703 45.9883 108.09 48.6016 104.785 50.5234C101.48 52.4453 97.8828 53.4062 93.9922 53.4062C90.1016 53.4062 86.5039 52.4453 83.1992 50.5234C79.8945 48.6016 77.2812 45.9883 75.3594 42.6836ZM71.8438 22.5391C70.5781 25.5156 69.9453 28.6328 69.9453 31.8906C69.9453 35.1484 70.5781 38.2656 71.8438 41.2422C73.1094 44.2188 74.8086 46.7852 76.9414 48.9414C79.0977 51.0742 81.6641 52.7734 84.6406 54.0391C87.6172 55.3047 90.7344 55.9375 93.9922 55.9375C97.25 55.9375 100.367 55.3047 103.344 54.0391C106.32 52.7734 108.875 51.0742 111.008 48.9414C113.164 46.7852 114.875 44.2188 116.141 41.2422C117.406 38.2656 118.039 35.1484 118.039 31.8906C118.039 28.6328 117.406 25.5156 116.141 22.5391C114.875 19.5625 113.164 17.0078 111.008 14.875C108.875 12.7188 106.32 11.0078 103.344 9.74219C100.367 8.47656 97.25 7.84375 93.9922 7.84375C90.7344 7.84375 87.6172 8.47656 84.6406 9.74219C81.6641 11.0078 79.0977 12.7188 76.9414 14.875C74.8086 17.0078 73.1094 19.5625 71.8438 22.5391ZM70.9648 45.2148C68.5977 41.1367 67.4141 36.6953 67.4141 31.8906C67.4141 27.0859 68.5977 22.6445 70.9648 18.5664C73.3555 14.4883 76.5898 11.2656 80.668 8.89844C84.7461 6.50781 89.1875 5.3125 93.9922 5.3125C98.7969 5.3125 103.238 6.50781 107.316 8.89844C111.395 11.2656 114.617 14.4883 116.984 18.5664C119.375 22.6445 120.57 27.0859 120.57 31.8906C120.57 36.6953 119.375 41.1367 116.984 45.2148C114.617 49.293 111.395 52.5273 107.316 54.918C103.238 57.2852 98.7969 58.4688 93.9922 58.4688C89.1875 58.4688 84.7461 57.2852 80.668 54.918C76.5898 52.5273 73.3555 49.293 70.9648 45.2148ZM67.168 20.6055C65.6445 24.1914 64.8828 27.9531 64.8828 31.8906C64.8828 35.8281 65.6445 39.6016 67.168 43.2109C68.7148 46.7969 70.7891 49.8906 73.3906 52.4922C75.9922 55.0938 79.0859 57.168 82.6719 58.7148C86.2812 60.2383 90.0547 61 93.9922 61C97.9297 61 101.691 60.2383 105.277 58.7148C108.887 57.168 111.992 55.0938 114.594 52.4922C117.195 49.8906 119.258 46.7969 120.781 43.2109C122.328 39.6016 123.102 35.8281 123.102 31.8906C123.102 27.9531 122.328 24.1914 120.781 20.6055C119.258 16.9961 117.195 13.8906 114.594 11.2891C111.992 8.6875 108.887 6.625 105.277 5.10156C101.691 3.55469 97.9297 2.78125 93.9922 2.78125C90.0547 2.78125 86.2812 3.55469 82.6719 5.10156C79.0859 6.625 75.9922 8.6875 73.3906 11.2891C70.7891 13.8906 68.7148 16.9961 67.168 20.6055ZM64.8477 44.1953C63.1836 40.2812 62.3516 36.1797 62.3516 31.8906C62.3516 27.6016 63.1836 23.5117 64.8477 19.6211C66.5352 15.707 68.7852 12.3438 71.5977 9.53125C74.4336 6.69531 77.7969 4.44531 81.6875 2.78125C85.6016 1.09375 89.7031 0.25 93.9922 0.25C98.2812 0.25 102.371 1.09375 106.262 2.78125C110.176 4.44531 113.539 6.69531 116.352 9.53125C119.188 12.3438 121.438 15.707 123.102 19.6211C124.789 23.5117 125.633 27.6016 125.633 31.8906C125.633 36.1797 124.789 40.2812 123.102 44.1953C121.438 48.0859 119.188 51.4492 116.352 54.2852C113.539 57.0977 110.176 59.3359 106.262 61C102.371 62.6875 98.2812 63.5312 93.9922 63.5312C89.7031 63.5312 85.6016 62.6875 81.6875 61C77.7969 59.3359 74.4336 57.0977 71.5977 54.2852C68.7852 51.4492 66.5352 48.0859 64.8477 44.1953Z" fill="white"/>
<path d="M171.863 35.4062V2.78125H174.395V35.4062C174.395 38.9688 172.988 42.0156 170.176 44.5469C167.363 47.0781 163.988 48.3438 160.051 48.3438C156.113 48.3438 152.738 47.0781 149.926 44.5469C147.113 42.0156 145.707 38.9688 145.707 35.4062V2.78125H148.238V35.4062C148.238 38.2656 149.387 40.7148 151.684 42.7539C154.004 44.793 156.793 45.8125 160.051 45.8125C163.309 45.8125 166.086 44.793 168.383 42.7539C170.703 40.7148 171.863 38.2656 171.863 35.4062ZM176.926 35.4062V2.78125H179.457V35.4062C179.457 37.8438 178.941 40.1758 177.91 42.4023C176.879 44.6055 175.496 46.5156 173.762 48.1328C172.027 49.75 169.965 51.0391 167.574 52C165.184 52.9375 162.676 53.4062 160.051 53.4062C157.426 53.4062 154.918 52.9375 152.527 52C150.137 51.0391 148.074 49.75 146.34 48.1328C144.605 46.5156 143.223 44.6055 142.191 42.4023C141.16 40.1758 140.645 37.8438 140.645 35.4062V2.78125H143.176V35.4062C143.176 38.1953 143.926 40.7852 145.426 43.1758C146.949 45.543 149 47.418 151.578 48.8008C154.18 50.1836 157.004 50.875 160.051 50.875C163.098 50.875 165.91 50.1836 168.488 48.8008C171.09 47.418 173.141 45.543 174.641 43.1758C176.164 40.7852 176.926 38.1953 176.926 35.4062ZM181.988 35.4062V2.78125H184.52V35.4062C184.52 38.5234 183.863 41.5117 182.551 44.3711C181.262 47.207 179.527 49.6562 177.348 51.7188C175.168 53.7812 172.566 55.4219 169.543 56.6406C166.52 57.8594 163.355 58.4688 160.051 58.4688C156.746 58.4688 153.582 57.8594 150.559 56.6406C147.535 55.4219 144.934 53.7812 142.754 51.7188C140.574 49.6562 138.828 47.207 137.516 44.3711C136.227 41.5117 135.582 38.5234 135.582 35.4062V2.78125H138.113V35.4062C138.113 39.1094 139.098 42.543 141.066 45.707C143.035 48.8477 145.695 51.3438 149.047 53.1953C152.422 55.0234 156.09 55.9375 160.051 55.9375C164.012 55.9375 167.668 55.0234 171.02 53.1953C174.395 51.3438 177.066 48.8477 179.035 45.707C181.004 42.543 181.988 39.1094 181.988 35.4062ZM187.051 35.4062V2.78125H189.582V35.4062C189.582 40.4688 188.258 45.168 185.609 49.5039C182.961 53.8164 179.363 57.2383 174.816 59.7695C170.293 62.2773 165.371 63.5312 160.051 63.5312C154.73 63.5312 149.797 62.2773 145.25 59.7695C140.727 57.2383 137.141 53.8164 134.492 49.5039C131.844 45.168 130.52 40.4688 130.52 35.4062V2.78125H133.051V35.4062C133.051 38.8516 133.766 42.1562 135.195 45.3203C136.625 48.4844 138.547 51.2148 140.961 53.5117C143.375 55.7852 146.246 57.6016 149.574 58.9609C152.926 60.3203 156.418 61 160.051 61C163.684 61 167.164 60.3203 170.492 58.9609C173.844 57.6016 176.727 55.7852 179.141 53.5117C181.555 51.2148 183.477 48.4844 184.906 45.3203C186.336 42.1562 187.051 38.8516 187.051 35.4062Z" fill="white"/>
<path d="M22.625 100.281H37.8828C40.2031 100.281 42.1602 99.5312 43.7539 98.0312C45.3711 96.5312 46.1797 94.3984 46.1797 91.6328C46.1797 89.5938 45.3359 87.7656 43.6484 86.1484C41.9609 84.5078 40.0391 83.6875 37.8828 83.6875H16.1562V129.25H13.625V81.1562H37.8828C40.7422 81.1562 43.2617 82.2227 45.4414 84.3555C47.6211 86.4648 48.7109 88.8906 48.7109 91.6328C48.7109 95.0078 47.6562 97.7148 45.5469 99.7539C43.4375 101.793 40.8828 102.812 37.8828 102.812H22.625V100.281ZM22.625 105.344H37.8828C41.5391 105.344 44.6797 104.066 47.3047 101.512C49.9297 98.9336 51.2422 95.6406 51.2422 91.6328C51.2422 88.1875 49.8945 85.1641 47.1992 82.5625C44.5273 79.9375 41.4219 78.625 37.8828 78.625H11.0938V129.25H8.5625V76.0938H37.8828C40.6719 76.0938 43.2852 76.8086 45.7227 78.2383C48.1836 79.668 50.1406 81.5898 51.5938 84.0039C53.0469 86.3945 53.7734 88.9375 53.7734 91.6328C53.7734 96.25 52.2031 100.117 49.0625 103.234C45.9453 106.328 42.2188 107.875 37.8828 107.875H22.625V105.344ZM22.625 110.406H37.8828C41.1641 110.406 44.2109 109.598 47.0234 107.98C49.8359 106.363 52.0859 104.113 53.7734 101.23C55.4609 98.3242 56.3047 95.125 56.3047 91.6328C56.3047 88.4688 55.4609 85.5039 53.7734 82.7383C52.1094 79.9492 49.8594 77.7227 47.0234 76.0586C44.1875 74.3945 41.1406 73.5625 37.8828 73.5625H6.03125V129.25H3.5V71.0312H37.8828C41.5625 71.0312 45.0195 71.9805 48.2539 73.8789C51.4883 75.7539 54.0547 78.2852 55.9531 81.4727C57.875 84.6367 58.8359 88.0234 58.8359 91.6328C58.8359 95.8047 57.9336 99.4727 56.1289 102.637C54.3477 105.801 51.9219 108.273 48.8516 110.055L55.3906 129.25H52.7188L46.4609 111.25C45.5234 111.625 44.8086 111.883 44.3164 112.023L50.1875 129.25H47.5156L41.7852 112.621C41.5742 112.668 40.8242 112.75 39.5352 112.867L44.9844 129.25H42.3125L36.9336 112.938H34.6484L39.7812 129.25H37.1094L31.9414 112.938H22.625V110.406ZM21.2188 129.25H18.6875V86.2188H37.8828C39.4531 86.2188 40.8008 86.7578 41.9258 87.8359C43.0742 88.8906 43.6484 90.1562 43.6484 91.6328C43.6484 95.7109 41.7266 97.75 37.8828 97.75H22.625V95.2188H37.8828C38.8906 95.2188 39.6758 94.9609 40.2383 94.4453C40.8242 93.9062 41.1172 92.9688 41.1172 91.6328C41.1172 90.8125 40.8008 90.1328 40.168 89.5938C39.5586 89.0312 38.7969 88.75 37.8828 88.75H21.2188V129.25Z" fill="white"/>
<path d="M87.7695 93.8125H83.5156C81.7109 93.8125 80.4102 93.3555 79.6133 92.4414C78.8164 91.5039 78.418 90.2734 78.418 88.75C78.418 85.375 80.9375 83.6875 85.9766 83.6875C90.7109 83.6875 94.2734 84.3906 96.6641 85.7969L94.625 87.3438C92.9844 86.5938 90.1016 86.2188 85.9766 86.2188C83.9609 86.2188 82.6016 86.4414 81.8984 86.8867C81.2188 87.332 80.8789 87.9531 80.8789 88.75C80.8789 89.5469 81.0664 90.168 81.4414 90.6133C81.8164 91.0586 82.5078 91.2812 83.5156 91.2812H87.875C91.0391 91.2812 93.8867 91.8203 96.418 92.8984C98.9727 93.9766 101.07 95.4531 102.711 97.3281C104.352 99.1797 105.605 101.324 106.473 103.762C107.34 106.176 107.773 108.766 107.773 111.531C107.773 113.781 107.457 115.914 106.824 117.93C106.191 119.945 105.23 121.797 103.941 123.484C102.676 125.172 101.141 126.637 99.3359 127.879C97.5547 129.098 95.4219 130.047 92.9375 130.727C90.4766 131.43 87.8047 131.781 84.9219 131.781C80.3984 131.781 76.1562 131.09 72.1953 129.707C68.2578 128.348 64.9766 126.438 62.3516 123.977L64.3906 122.465C66.7812 124.621 69.7695 126.297 73.3555 127.492C76.9648 128.664 80.8203 129.25 84.9219 129.25C88.1328 129.25 91.0273 128.793 93.6055 127.879C96.207 126.941 98.3398 125.664 100.004 124.047C101.691 122.43 102.98 120.555 103.871 118.422C104.785 116.289 105.242 113.992 105.242 111.531C105.242 108.273 104.586 105.332 103.273 102.707C101.961 100.059 99.957 97.9141 97.2617 96.2734C94.5898 94.6328 91.4258 93.8125 87.7695 93.8125ZM83.5156 96.3438H87.5234C92.2812 96.3438 95.9961 97.7969 98.668 100.703C101.363 103.609 102.711 107.219 102.711 111.531C102.711 115.914 101.152 119.547 98.0352 122.43C94.918 125.289 90.5469 126.719 84.9219 126.719C81.1719 126.719 77.668 126.203 74.4102 125.172C71.1523 124.141 68.4453 122.688 66.2891 120.812L68.2578 119.23C70.1797 120.801 72.5938 122.02 75.5 122.887C78.4297 123.754 81.5703 124.188 84.9219 124.188C89.8672 124.188 93.6406 123.004 96.2422 120.637C98.8672 118.27 100.18 115.234 100.18 111.531C100.18 107.875 99.0781 104.852 96.875 102.461C94.6953 100.07 91.5664 98.875 87.4883 98.875H83.5156C80.0938 98.875 77.5273 97.9375 75.8164 96.0625C74.1055 94.1875 73.25 91.75 73.25 88.75C73.25 85.75 74.3047 83.3125 76.4141 81.4375C78.5469 79.5625 81.7344 78.625 85.9766 78.625C88.9531 78.625 91.7188 78.9766 94.2734 79.6797C96.8281 80.3594 98.9375 81.3438 100.602 82.6328L98.5977 84.1797C95.668 82.1641 91.4609 81.1562 85.9766 81.1562C82.4375 81.1562 79.8477 81.8594 78.207 83.2656C76.5898 84.6484 75.7812 86.4766 75.7812 88.75C75.7812 91.0469 76.3789 92.8867 77.5742 94.2695C78.793 95.6523 80.7734 96.3438 83.5156 96.3438ZM83.5156 101.406H87.3828C90.8047 101.406 93.3711 102.355 95.082 104.254C96.793 106.152 97.6484 108.578 97.6484 111.531C97.6484 114.531 96.582 116.969 94.4492 118.844C92.3398 120.719 89.1641 121.656 84.9219 121.656C81.9453 121.656 79.168 121.316 76.5898 120.637C74.0352 119.934 71.9258 118.938 70.2617 117.648L72.2656 116.102C75.1953 118.117 79.4141 119.125 84.9219 119.125C88.4609 119.125 91.0391 118.434 92.6562 117.051C94.2969 115.645 95.1172 113.805 95.1172 111.531C95.1172 109.258 94.5078 107.43 93.2891 106.047C92.0703 104.641 90.0898 103.938 87.3477 103.938H83.5156C78.7109 103.938 74.9492 102.508 72.2305 99.6484C69.5352 96.7656 68.1875 93.1328 68.1875 88.75C68.1875 84.3672 69.7461 80.7461 72.8633 77.8867C75.9805 75.0039 80.3516 73.5625 85.9766 73.5625C89.7266 73.5625 93.2188 74.0781 96.4531 75.1094C99.7109 76.1406 102.418 77.5938 104.574 79.4688L102.605 81.0508C100.684 79.4805 98.2695 78.2617 95.3633 77.3945C92.457 76.5273 89.3281 76.0938 85.9766 76.0938C81.0312 76.0938 77.2461 77.2773 74.6211 79.6445C72.0195 82.0117 70.7188 85.0469 70.7188 88.75C70.7188 92.4297 71.8203 95.4648 74.0234 97.8555C76.2266 100.223 79.3906 101.406 83.5156 101.406ZM83.5156 106.469H87.3828C89.1875 106.469 90.4883 106.938 91.2852 107.875C92.082 108.812 92.4805 110.031 92.4805 111.531C92.4805 114.906 89.9609 116.594 84.9219 116.594C80.1641 116.594 76.5898 115.891 74.1992 114.484L76.2383 112.938C77.8789 113.688 80.7734 114.062 84.9219 114.062C86.9375 114.062 88.2852 113.84 88.9648 113.395C89.668 112.949 90.0195 112.328 90.0195 111.531C90.0195 110.758 89.8203 110.148 89.4219 109.703C89.0469 109.234 88.3438 109 87.3125 109H83.5156C80.2812 109 77.3516 108.473 74.7266 107.418C72.125 106.363 69.9805 104.91 68.293 103.059C66.6289 101.207 65.3516 99.0625 64.4609 96.625C63.5703 94.1875 63.125 91.5625 63.125 88.75C63.125 86.5 63.4414 84.3672 64.0742 82.3516C64.707 80.3359 65.6562 78.4844 66.9219 76.7969C68.2109 75.1094 69.7461 73.6562 71.5273 72.4375C73.332 71.1953 75.4648 70.2344 77.9258 69.5547C80.4102 68.8516 83.0938 68.5 85.9766 68.5C90.5 68.5 94.7305 69.1914 98.668 70.5742C102.605 71.9336 105.887 73.8438 108.512 76.3047L106.473 77.8164C104.082 75.6602 101.094 73.9961 97.5078 72.8242C93.9219 71.6289 90.0781 71.0312 85.9766 71.0312C82.7656 71.0312 79.8594 71.5 77.2578 72.4375C74.6797 73.3516 72.5469 74.6172 70.8594 76.2344C69.1953 77.8516 67.9062 79.7266 66.9922 81.8594C66.1016 83.9922 65.6562 86.2891 65.6562 88.75C65.6562 92.0547 66.3242 95.0312 67.6602 97.6797C68.9961 100.328 71.0352 102.461 73.7773 104.078C76.5195 105.672 79.7656 106.469 83.5156 106.469Z" fill="white"/>
<path d="M126.055 129.25H123.523V71.0312H126.055V129.25ZM120.992 129.25H118.461V71.0312H120.992V129.25ZM115.93 129.25H113.398V71.0312H115.93V129.25ZM131.117 116.594H158.047V119.125H131.117V121.656H158.047V124.188H131.117V126.719H158.047V129.25H128.586V71.0312H158.047V73.5625H131.117V76.0938H158.047V78.625H131.117V81.1562H158.047V83.6875H131.117V93.8125H144.934V96.3438H131.117V98.875H144.934V101.406H131.117V103.938H144.934V106.469H131.117V116.594Z" fill="white"/>
<path d="M187.824 93.8125H183.57C181.766 93.8125 180.465 93.3555 179.668 92.4414C178.871 91.5039 178.473 90.2734 178.473 88.75C178.473 85.375 180.992 83.6875 186.031 83.6875C190.766 83.6875 194.328 84.3906 196.719 85.7969L194.68 87.3438C193.039 86.5938 190.156 86.2188 186.031 86.2188C184.016 86.2188 182.656 86.4414 181.953 86.8867C181.273 87.332 180.934 87.9531 180.934 88.75C180.934 89.5469 181.121 90.168 181.496 90.6133C181.871 91.0586 182.562 91.2812 183.57 91.2812H187.93C191.094 91.2812 193.941 91.8203 196.473 92.8984C199.027 93.9766 201.125 95.4531 202.766 97.3281C204.406 99.1797 205.66 101.324 206.527 103.762C207.395 106.176 207.828 108.766 207.828 111.531C207.828 113.781 207.512 115.914 206.879 117.93C206.246 119.945 205.285 121.797 203.996 123.484C202.73 125.172 201.195 126.637 199.391 127.879C197.609 129.098 195.477 130.047 192.992 130.727C190.531 131.43 187.859 131.781 184.977 131.781C180.453 131.781 176.211 131.09 172.25 129.707C168.312 128.348 165.031 126.438 162.406 123.977L164.445 122.465C166.836 124.621 169.824 126.297 173.41 127.492C177.02 128.664 180.875 129.25 184.977 129.25C188.188 129.25 191.082 128.793 193.66 127.879C196.262 126.941 198.395 125.664 200.059 124.047C201.746 122.43 203.035 120.555 203.926 118.422C204.84 116.289 205.297 113.992 205.297 111.531C205.297 108.273 204.641 105.332 203.328 102.707C202.016 100.059 200.012 97.9141 197.316 96.2734C194.645 94.6328 191.48 93.8125 187.824 93.8125ZM183.57 96.3438H187.578C192.336 96.3438 196.051 97.7969 198.723 100.703C201.418 103.609 202.766 107.219 202.766 111.531C202.766 115.914 201.207 119.547 198.09 122.43C194.973 125.289 190.602 126.719 184.977 126.719C181.227 126.719 177.723 126.203 174.465 125.172C171.207 124.141 168.5 122.688 166.344 120.812L168.312 119.23C170.234 120.801 172.648 122.02 175.555 122.887C178.484 123.754 181.625 124.188 184.977 124.188C189.922 124.188 193.695 123.004 196.297 120.637C198.922 118.27 200.234 115.234 200.234 111.531C200.234 107.875 199.133 104.852 196.93 102.461C194.75 100.07 191.621 98.875 187.543 98.875H183.57C180.148 98.875 177.582 97.9375 175.871 96.0625C174.16 94.1875 173.305 91.75 173.305 88.75C173.305 85.75 174.359 83.3125 176.469 81.4375C178.602 79.5625 181.789 78.625 186.031 78.625C189.008 78.625 191.773 78.9766 194.328 79.6797C196.883 80.3594 198.992 81.3438 200.656 82.6328L198.652 84.1797C195.723 82.1641 191.516 81.1562 186.031 81.1562C182.492 81.1562 179.902 81.8594 178.262 83.2656C176.645 84.6484 175.836 86.4766 175.836 88.75C175.836 91.0469 176.434 92.8867 177.629 94.2695C178.848 95.6523 180.828 96.3438 183.57 96.3438ZM183.57 101.406H187.438C190.859 101.406 193.426 102.355 195.137 104.254C196.848 106.152 197.703 108.578 197.703 111.531C197.703 114.531 196.637 116.969 194.504 118.844C192.395 120.719 189.219 121.656 184.977 121.656C182 121.656 179.223 121.316 176.645 120.637C174.09 119.934 171.98 118.938 170.316 117.648L172.32 116.102C175.25 118.117 179.469 119.125 184.977 119.125C188.516 119.125 191.094 118.434 192.711 117.051C194.352 115.645 195.172 113.805 195.172 111.531C195.172 109.258 194.562 107.43 193.344 106.047C192.125 104.641 190.145 103.938 187.402 103.938H183.57C178.766 103.938 175.004 102.508 172.285 99.6484C169.59 96.7656 168.242 93.1328 168.242 88.75C168.242 84.3672 169.801 80.7461 172.918 77.8867C176.035 75.0039 180.406 73.5625 186.031 73.5625C189.781 73.5625 193.273 74.0781 196.508 75.1094C199.766 76.1406 202.473 77.5938 204.629 79.4688L202.66 81.0508C200.738 79.4805 198.324 78.2617 195.418 77.3945C192.512 76.5273 189.383 76.0938 186.031 76.0938C181.086 76.0938 177.301 77.2773 174.676 79.6445C172.074 82.0117 170.773 85.0469 170.773 88.75C170.773 92.4297 171.875 95.4648 174.078 97.8555C176.281 100.223 179.445 101.406 183.57 101.406ZM183.57 106.469H187.438C189.242 106.469 190.543 106.938 191.34 107.875C192.137 108.812 192.535 110.031 192.535 111.531C192.535 114.906 190.016 116.594 184.977 116.594C180.219 116.594 176.645 115.891 174.254 114.484L176.293 112.938C177.934 113.688 180.828 114.062 184.977 114.062C186.992 114.062 188.34 113.84 189.02 113.395C189.723 112.949 190.074 112.328 190.074 111.531C190.074 110.758 189.875 110.148 189.477 109.703C189.102 109.234 188.398 109 187.367 109H183.57C180.336 109 177.406 108.473 174.781 107.418C172.18 106.363 170.035 104.91 168.348 103.059C166.684 101.207 165.406 99.0625 164.516 96.625C163.625 94.1875 163.18 91.5625 163.18 88.75C163.18 86.5 163.496 84.3672 164.129 82.3516C164.762 80.3359 165.711 78.4844 166.977 76.7969C168.266 75.1094 169.801 73.6562 171.582 72.4375C173.387 71.1953 175.52 70.2344 177.98 69.5547C180.465 68.8516 183.148 68.5 186.031 68.5C190.555 68.5 194.785 69.1914 198.723 70.5742C202.66 71.9336 205.941 73.8438 208.566 76.3047L206.527 77.8164C204.137 75.6602 201.148 73.9961 197.562 72.8242C193.977 71.6289 190.133 71.0312 186.031 71.0312C182.82 71.0312 179.914 71.5 177.312 72.4375C174.734 73.3516 172.602 74.6172 170.914 76.2344C169.25 77.8516 167.961 79.7266 167.047 81.8594C166.156 83.9922 165.711 86.2891 165.711 88.75C165.711 92.0547 166.379 95.0312 167.715 97.6797C169.051 100.328 171.09 102.461 173.832 104.078C176.574 105.672 179.82 106.469 183.57 106.469Z" fill="white"/>
</svg>
